<?xml version="1.0"?><svg height="32px" id="icon" style="enable-background:new 0 0 32 32;" version="1.1" viewBox="0 0 32 32" width="32px" xml:space="preserve" xmlns="http://www.w3.org/2000/svg" xmlns:xlink="http://www.w3.org/1999/xlink"><style type="text/css">
	.st0{fill:none;}
</style><title/><rect height="2" width="28" x="2" y="26"/><path d="M25.4,9c0.8-0.8,0.8-2,0-2.8c0,0,0,0,0,0l-3.6-3.6c-0.8-0.8-2-0.8-2.8,0c0,0,0,0,0,0l-15,15V24h6.4L25.4,9z M20.4,4L24,7.6  l-3,3L17.4,7L20.4,4z M6,22v-3.6l10-10l3.6,3.6l-10,10H6z"/><rect class="st0" height="32" id="_Transparent_Rectangle_" width="32"/></svg>